<svg width="19" height="20" viewBox="0 0 19 20" fill="none" xmlns="http://www.w3.org/2000/svg">
<g clip-path="url(#clip0_68_58)">
<path d="M0.766663 0.833374H3.83333L5.888 11.9917C5.9581 12.3754 6.15013 12.72 6.43045 12.9653C6.71077 13.2106 7.06153 13.3409 7.42133 13.3334H14.8733C15.2331 13.3409 15.5839 13.2106 15.8642 12.9653C16.1445 12.72 16.3366 12.3754 16.4067 11.9917L17.6333 5.00004H4.6M7.66666 17.5C7.66666 17.9603 7.32341 18.3334 6.9 18.3334C6.47658 18.3334 6.13333 17.9603 6.13333 17.5C6.13333 17.0398 6.47658 16.6667 6.9 16.6667C7.32341 16.6667 7.66666 17.0398 7.66666 17.5ZM16.1 17.5C16.1 17.9603 15.7567 18.3334 15.3333 18.3334C14.9099 18.3334 14.5667 17.9603 14.5667 17.5C14.5667 17.0398 14.9099 16.6667 15.3333 16.6667C15.7567 16.6667 16.1 17.0398 16.1 17.5Z" stroke="white" stroke-width="4" stroke-linecap="round" stroke-linejoin="round"/>
</g>
<defs>
<clipPath id="clip0_68_58">
<rect width="18.4" height="20" fill="white"/>
</clipPath>
</defs>
</svg>
